<svg width="63" height="63" viewBox="0 0 63 63" fill="none" xmlns="http://www.w3.org/2000/svg">
<path fill-rule="evenodd" clip-rule="evenodd" d="M31.4206 1.18258e-06C37.635 1.18258e-06 43.7099 1.84279 48.877 5.29533C54.0441 8.74787 58.0713 13.6551 60.4495 19.3965C62.8276 25.1378 63.4498 31.4555 62.2375 37.5505C61.0251 43.6455 58.0326 49.2441 53.6383 53.6383C49.2441 58.0326 43.6455 61.0251 37.5505 62.2375C31.4555 63.4498 25.1378 62.8276 19.3965 60.4495C13.6551 58.0713 8.74787 54.0441 5.29533 48.877C1.84279 43.7099 1.18258e-06 37.635 1.18258e-06 31.4206C-0.00113108 27.2941 0.810814 23.2078 2.38945 19.3951C3.96808 15.5825 6.28246 12.1183 9.20036 9.20036C12.1183 6.28246 15.5825 3.96808 19.3951 2.38945C23.2078 0.810814 27.2941 -0.00113108 31.4206 1.18258e-06V1.18258e-06ZM40.6417 12.5389H22.1995C21.6891 12.5392 21.1877 12.6739 20.746 12.9296C20.3042 13.1853 19.9376 13.5529 19.6831 13.9954L10.462 29.9642C10.1915 30.4353 10.0572 30.9724 10.0742 31.5154C10.0843 31.9924 10.2179 32.4585 10.462 32.8684L11.884 35.3331L40.9864 18.5456L47.5877 29.9642C47.8417 30.406 47.9754 30.9067 47.9754 31.4163C47.9754 31.9259 47.8417 32.4266 47.5877 32.8684L40.7623 44.6921C40.5055 45.1318 40.1381 45.4967 39.6967 45.7507C39.2553 46.0046 38.7552 46.1388 38.2459 46.1399H24.5953C24.0855 46.1414 23.5844 46.0083 23.1425 45.7541C22.7007 45.4999 22.3338 45.1335 22.0789 44.6921L19.7693 40.702L31.4206 33.9198V29.0938L14.0902 39.168L16.1843 42.7789L19.6831 48.8114C19.9362 49.2551 20.3025 49.6236 20.7446 49.8795C21.1867 50.1354 21.6887 50.2694 22.1995 50.2678H40.6417C41.1519 50.2667 41.653 50.1316 42.0946 49.876C42.5362 49.6204 42.903 49.2533 43.1581 48.8114L52.3792 32.8426C52.6332 32.4008 52.7669 31.9001 52.7669 31.3904C52.7669 30.8808 52.6332 30.3801 52.3792 29.9383L43.1581 13.9954C42.9016 13.5546 42.5346 13.1884 42.0933 12.933C41.6519 12.6776 41.1516 12.5418 40.6417 12.5389V12.5389ZM22.0961 18.0974C22.9579 16.5635 24.0437 16.6497 25.1641 16.6497H35.7468L16.5979 27.7408L22.0961 18.0974Z" fill="#845EF7"/>
</svg>
