<svg width="314" height="89" viewBox="0 0 314 89" fill="none" xmlns="http://www.w3.org/2000/svg">
<path fill-rule="evenodd" clip-rule="evenodd" d="M47.4206 13.0794C53.635 13.0794 59.7099 14.9222 64.877 18.3747C70.0441 21.8272 74.0713 26.7345 76.4495 32.4758C78.8276 38.2172 79.4498 44.5348 78.2375 50.6298C77.0251 56.7248 74.0326 62.3235 69.6383 66.7177C65.2441 71.112 59.6455 74.1045 53.5505 75.3169C47.4555 76.5292 41.1378 75.907 35.3965 73.5288C29.6551 71.1507 24.7479 67.1234 21.2953 61.9563C17.8428 56.7892 16 50.7144 16 44.5C15.9989 40.3735 16.8108 36.2871 18.3894 32.4745C19.9681 28.6619 22.2825 25.1976 25.2004 22.2797C28.1183 19.3618 31.5825 17.0475 35.3951 15.4688C39.2078 13.8902 43.2941 13.0782 47.4206 13.0794V13.0794ZM56.6417 25.6183H38.1995C37.6891 25.6185 37.1877 25.7533 36.746 26.009C36.3042 26.2646 35.9376 26.6322 35.6831 27.0747L26.462 43.0436C26.1915 43.5147 26.0572 44.0518 26.0742 44.5948C26.0843 45.0717 26.2179 45.5379 26.462 45.9478L27.884 48.4125L56.9864 31.6249L63.5877 43.0436C63.8417 43.4854 63.9754 43.9861 63.9754 44.4957C63.9754 45.0053 63.8417 45.506 63.5877 45.9478L56.7623 57.7714C56.5055 58.2112 56.1381 58.5761 55.6967 58.83C55.2553 59.084 54.7552 59.2182 54.2459 59.2192H40.5953C40.0855 59.2208 39.5844 59.0877 39.1425 58.8335C38.7007 58.5793 38.3338 58.2129 38.0789 57.7714L35.7693 53.7814L47.4206 46.9992V42.1732L30.0902 52.2474L32.1843 55.8583L35.6831 61.8908C35.9362 62.3344 36.3025 62.703 36.7446 62.9589C37.1867 63.2147 37.6887 63.3487 38.1995 63.3472H56.6417C57.1519 63.3461 57.653 63.211 58.0946 62.9554C58.5362 62.6998 58.903 62.3327 59.1581 61.8908L68.3792 45.9219C68.6332 45.4801 68.7669 44.9794 68.7669 44.4698C68.7669 43.9602 68.6332 43.4595 68.3792 43.0177L59.1581 27.0747C58.9016 26.634 58.5346 26.2678 58.0933 26.0124C57.6519 25.757 57.1516 25.6211 56.6417 25.6183V25.6183ZM38.0961 31.1768C38.9579 29.6428 40.0437 29.729 41.1641 29.729H51.7468L32.5979 40.8202L38.0961 31.1768Z" fill="#845EF7"/>
<path d="M97.1487 62.4331H102.394V43.5589H110.45V39.297H102.394V37.2363C102.394 34.7072 103.846 33.3022 106.516 33.3022C108.108 33.3022 109.326 33.63 110.075 33.8642V29.6959C109.326 29.4149 107.64 29.0403 105.579 29.0403C100.568 29.0403 97.1487 31.8503 97.1487 37.0021V39.297H93.4488V43.5589H97.1487V62.4331ZM132.759 50.022C132.759 42.8096 128.591 38.9223 122.034 38.9223C114.728 38.9223 110.138 43.5589 110.138 51.0524C110.138 58.3117 114.728 62.8078 122.034 62.8078C128.357 62.8078 132.572 59.6699 132.759 54.5181H128.029C127.795 57.2345 125.5 58.7332 122.128 58.7332C118.194 58.7332 115.712 56.3447 115.431 51.8954H132.759V50.022ZM128.029 48.7107H115.571C116.18 44.8703 118.475 42.9969 122.081 42.9969C125.875 42.9969 128.029 44.9171 128.029 48.3828V48.7107ZM135.824 62.4331H141.069V29.977H135.824V62.4331ZM145.024 36.5806H150.41V31.4288H145.024V36.5806ZM145.071 62.4331H150.316V39.297H145.071V62.4331ZM154.316 71.7063H159.561V62.6205C159.561 61.6838 159.468 59.2952 159.421 57.7497H159.468C160.451 60.7471 163.449 62.8078 168.038 62.8078C174.689 62.8078 178.904 57.937 178.904 50.4436C178.904 43.4652 174.736 38.9223 168.132 38.9223C163.542 38.9223 160.451 41.1704 159.514 44.6829H159.468L159.561 39.297H154.316V71.7063ZM167.008 58.4991C162.512 58.4991 159.561 55.97 159.561 52.0359V50.8182C159.655 46.1816 162.559 43.2311 166.914 43.2311C171.083 43.2311 173.658 46.1348 173.658 50.5841C173.658 55.408 171.036 58.4991 167.008 58.4991ZM203.726 50.022C203.726 42.8096 199.558 38.9223 193.001 38.9223C185.695 38.9223 181.105 43.5589 181.105 51.0524C181.105 58.3117 185.695 62.8078 193.001 62.8078C199.324 62.8078 203.539 59.6699 203.726 54.5181H198.996C198.762 57.2345 196.467 58.7332 193.095 58.7332C189.161 58.7332 186.678 56.3447 186.397 51.8954H203.726V50.022ZM198.996 48.7107H186.538C187.147 44.8703 189.442 42.9969 193.048 42.9969C196.841 42.9969 198.996 44.9171 198.996 48.3828V48.7107ZM206.79 62.4331H212.036V29.977H206.79V62.4331ZM237.769 50.022C237.769 42.8096 233.6 38.9223 227.044 38.9223C219.738 38.9223 215.148 43.5589 215.148 51.0524C215.148 58.3117 219.738 62.8078 227.044 62.8078C233.366 62.8078 237.581 59.6699 237.769 54.5181H233.038C232.804 57.2345 230.509 58.7332 227.137 58.7332C223.203 58.7332 220.721 56.3447 220.44 51.8954H237.769V50.022ZM233.038 48.7107H220.581C221.189 44.8703 223.484 42.9969 227.091 42.9969C230.884 42.9969 233.038 44.9171 233.038 48.3828V48.7107ZM240.833 36.5806H246.219V31.4288H240.833V36.5806ZM240.88 62.4331H246.125V39.297H240.88V62.4331ZM260.288 62.7141C262.208 62.7141 263.801 62.3863 264.503 62.1521V57.9839C263.847 58.1712 262.349 58.4054 261.037 58.4054C257.853 58.4054 256.729 56.9067 256.729 53.9093V43.5589H264.69V39.297H256.729V34.0515H252.373L252.139 37.5173C251.998 38.8286 251.67 39.297 250.781 39.297H247.83V43.5589H251.483V54.1903C251.483 59.2952 253.965 62.7141 260.288 62.7141ZM288.238 50.022C288.238 42.8096 284.07 38.9223 277.513 38.9223C270.207 38.9223 265.617 43.5589 265.617 51.0524C265.617 58.3117 270.207 62.8078 277.513 62.8078C283.836 62.8078 288.051 59.6699 288.238 54.5181H283.508C283.274 57.2345 280.979 58.7332 277.607 58.7332C273.673 58.7332 271.191 56.3447 270.91 51.8954H288.238V50.022ZM283.508 48.7107H271.05C271.659 44.8703 273.954 42.9969 277.56 42.9969C281.354 42.9969 283.508 44.9171 283.508 48.3828V48.7107Z" fill="#1C1C1C"/>
</svg>
